<svg width="24" height="24" viewBox="0 0 24 24" fill="none" xmlns="http://www.w3.org/2000/svg">
<path d="M10.0901 11.0086C10.6211 10.5934 11.0093 10.0229 11.2007 9.37665C11.3921 8.73035 11.377 8.04045 11.1577 7.40311C10.9383 6.76577 10.5256 6.21274 9.97702 5.8211C9.42844 5.42946 8.77135 5.21872 8.09732 5.21826H2.87916C2.736 5.21826 2.5987 5.27513 2.49746 5.37637C2.39623 5.4776 2.33936 5.6149 2.33936 5.75807V17.274C2.33936 17.4172 2.39623 17.5545 2.49746 17.6557C2.5987 17.7569 2.736 17.8138 2.87916 17.8138H8.45719C9.26545 17.8136 10.0501 17.5413 10.6848 17.0408C11.3194 16.5403 11.7671 15.8407 11.9557 15.0548C12.1443 14.2688 12.0628 13.4423 11.7244 12.7083C11.3859 11.9743 10.8103 11.3756 10.0901 11.0086ZM3.41897 6.29788H8.09732C8.66998 6.29788 9.21919 6.52537 9.62413 6.9303C10.0291 7.33524 10.2566 7.88445 10.2566 8.45712C10.2566 9.02978 10.0291 9.57899 9.62413 9.98393C9.21919 10.3889 8.66998 10.6164 8.09732 10.6164H3.41897V6.29788ZM8.45719 16.7342H3.41897V11.696H8.45719C9.1253 11.696 9.76604 11.9614 10.2385 12.4338C10.7109 12.9062 10.9763 13.547 10.9763 14.2151C10.9763 14.8832 10.7109 15.5239 10.2385 15.9964C9.76604 16.4688 9.1253 16.7342 8.45719 16.7342ZM14.575 7.19756C14.575 7.05439 14.6319 6.91709 14.7331 6.81586C14.8344 6.71463 14.9717 6.65775 15.1148 6.65775H20.8728C21.016 6.65775 21.1533 6.71463 21.2545 6.81586C21.3557 6.91709 21.4126 7.05439 21.4126 7.19756C21.4126 7.34073 21.3557 7.47803 21.2545 7.57926C21.1533 7.6805 21.016 7.73737 20.8728 7.73737H15.1148C14.9717 7.73737 14.8344 7.6805 14.7331 7.57926C14.6319 7.47803 14.575 7.34073 14.575 7.19756ZM17.9938 9.53673C17.2884 9.53685 16.5948 9.71725 15.9788 10.0608C15.3627 10.4044 14.8447 10.8997 14.4739 11.4997C14.1031 12.0997 13.8918 12.7846 13.8601 13.4892C13.8284 14.1939 13.9774 14.895 14.2928 15.5259C14.6082 16.1568 15.0796 16.6966 15.6623 17.0941C16.245 17.4916 16.9196 17.7336 17.6222 17.797C18.3247 17.8605 19.0317 17.7433 19.6762 17.4567C20.3207 17.1701 20.8813 16.7235 21.3046 16.1593C21.3907 16.0448 21.4277 15.9007 21.4075 15.7589C21.3873 15.6171 21.3117 15.4891 21.1971 15.4031C21.0826 15.3171 20.9386 15.2801 20.7968 15.3003C20.655 15.3204 20.527 15.3961 20.4409 15.5106C20.0835 15.9873 19.5947 16.3493 19.0344 16.552C18.4741 16.7547 17.8669 16.7894 17.2871 16.6518C16.7074 16.5143 16.1805 16.2104 15.7711 15.7775C15.3617 15.3446 15.0877 14.8016 14.9826 14.2151H21.5925C21.7357 14.2151 21.873 14.1582 21.9742 14.057C22.0755 13.9557 22.1323 13.8184 22.1323 13.6753C22.1309 12.5781 21.6944 11.5263 20.9186 10.7505C20.1428 9.97464 19.091 9.53816 17.9938 9.53673ZM14.9826 13.1355C15.1089 12.4287 15.4797 11.7888 16.0302 11.328C16.5808 10.8671 17.2758 10.6145 17.9938 10.6145C18.7118 10.6145 19.4069 10.8671 19.9574 11.328C20.5079 11.7888 20.8788 12.4287 21.005 13.1355H14.9826Z" fill="#EAEAEA"/>
</svg>
