<svg width="59" height="45" viewBox="0 0 59 45" fill="none" xmlns="http://www.w3.org/2000/svg">
<g clip-path="url(#clip0_114_672)">
<path d="M0 1.64697V44.5H6.53018V28.0479H13.314V20.283H6.53018V9.4107H21.4876V1.64697H0Z" fill="white"/>
<path d="M38.0871 27.4165C39.6415 26.3808 40.8809 24.8377 41.803 22.7874C42.7251 20.7371 43.1855 18.2517 43.1855 15.3394C43.1855 12.4271 42.7371 9.83759 41.8427 7.80266C40.9459 5.77245 39.7148 4.23768 38.146 3.2007C36.5784 2.16609 34.7799 1.64819 32.7519 1.64819H21.4888V44.5013H27.615V28.9702H31.9609L37.9296 44.5013H44.8072L38.0871 27.4177V27.4165ZM36.5267 18.3853C36.1708 19.2673 35.6768 19.9579 35.0444 20.4557C34.4121 20.9558 33.6595 21.2041 32.7916 21.2041H27.6138V9.41193H32.7916C33.6607 9.41193 34.4121 9.6626 35.0444 10.1604C35.6768 10.6582 36.1708 11.3487 36.5267 12.2308C36.8825 13.1129 37.0605 14.1499 37.0605 15.3382C37.0605 16.5265 36.8825 17.5044 36.5267 18.3853Z" fill="white"/>
<path d="M53.2392 0.5C50.0631 0.5 47.4784 3.04101 47.4784 6.16613C47.4784 9.29125 50.0631 11.8323 53.2392 11.8323C56.4153 11.8323 59 9.29007 59 6.16613C59 3.04101 56.4153 0.5 53.2392 0.5ZM53.2392 10.5694C50.7699 10.5694 48.7611 8.59363 48.7611 6.16613C48.7611 3.73863 50.7699 1.76164 53.2392 1.76164C55.7084 1.76164 57.7173 3.73745 57.7173 6.16613C57.7173 8.59481 55.7084 10.5694 53.2392 10.5694Z" fill="white"/>
<path d="M55.1301 7.19246C54.7623 7.81323 54.0782 8.19869 53.3437 8.19869C52.2041 8.19869 51.2772 7.28587 51.2772 6.16612C51.2772 5.04638 52.2053 4.13237 53.3437 4.13237C54.077 4.13237 54.7611 4.51902 55.1301 5.13861L55.1782 5.22019H56.5667L56.4838 5.00026C56.2421 4.37122 55.8178 3.83558 55.2576 3.45366C54.6949 3.07056 54.0338 2.86719 53.3461 2.86719C51.4972 2.86719 49.9921 4.34757 49.9921 6.16612C49.9921 7.98468 51.496 9.46388 53.3461 9.46388C54.035 9.46388 54.6949 9.26168 55.2576 8.8774C55.819 8.49548 56.2421 7.95985 56.4838 7.3308L56.5667 7.11087H55.1782L55.1301 7.19246Z" fill="white"/>
</g>
<defs>
<clipPath id="clip0_114_672">
<rect width="59" height="44" fill="white" transform="translate(0 0.5)"/>
</clipPath>
</defs>
</svg>
