<svg width="24" height="24" viewBox="0 0 24 24" fill="none" xmlns="http://www.w3.org/2000/svg">
<path d="M12.3442 2.33911C10.5292 2.33911 8.75502 2.87732 7.24591 3.88567C5.7368 4.89403 4.56059 6.32724 3.86602 8.00407C3.17146 9.68091 2.98973 11.526 3.34381 13.3062C3.6979 15.0863 4.5719 16.7214 5.85529 18.0048C7.13868 19.2882 8.77383 20.1622 10.5539 20.5163C12.3341 20.8704 14.1792 20.6886 15.856 19.9941C17.5329 19.2995 18.9661 18.1233 19.9744 16.6142C20.9828 15.1051 21.521 13.3309 21.521 11.5159C21.5181 9.08291 20.5504 6.75043 18.83 5.03008C17.1097 3.30972 14.7772 2.34197 12.3442 2.33911ZM20.4243 11.003C20.131 10.986 19.8359 10.9761 19.5426 10.9761C18.166 10.9767 16.7961 11.1671 15.4715 11.542C15.1446 10.5297 14.7093 9.5557 14.1733 8.63688C14.1607 8.61439 14.1463 8.5928 14.1337 8.57031C15.511 7.76166 16.7499 6.73777 17.8035 5.53748C19.3534 6.95011 20.2932 8.91008 20.4243 11.003ZM16.9587 4.86632C15.9783 5.97483 14.8272 6.91969 13.5489 7.66523C12.5146 6.17436 11.2189 4.88316 9.72436 3.85418C10.925 3.44333 12.2056 3.32086 13.4624 3.4967C14.7191 3.67253 15.9169 4.14172 16.9587 4.86632ZM8.53948 4.37059C10.1304 5.35393 11.5072 6.64723 12.5881 8.17355C10.7152 9.07295 8.66385 9.53883 6.58627 9.53656C5.89853 9.53604 5.21174 9.48522 4.5314 9.38452C4.82423 8.32051 5.33061 7.32726 6.01968 6.46526C6.70875 5.60326 7.5661 4.89057 8.53948 4.37059ZM4.2471 11.5159C4.24706 11.1572 4.27081 10.799 4.31818 10.4434C5.06877 10.5582 5.82697 10.6159 6.58627 10.6162C8.8724 10.6187 11.1285 10.0954 13.18 9.08672C13.1998 9.12001 13.2214 9.1524 13.2403 9.18569C13.7372 10.0365 14.1408 10.9384 14.4441 11.8757C13.6314 12.1697 12.8459 12.5343 12.0968 12.9653C10.086 14.1253 8.37134 15.7356 7.0874 17.6697C6.19672 16.9107 5.48147 15.9674 4.99107 14.9049C4.50068 13.8424 4.24684 12.6861 4.2471 11.5159ZM7.95289 18.3157C9.14834 16.498 10.7519 14.9847 12.6357 13.8964C13.3079 13.5099 14.0116 13.181 14.7392 12.9131C14.9961 13.9784 15.126 15.0704 15.1261 16.1663C15.126 17.1994 15.0111 18.2293 14.7833 19.2369C13.6472 19.5961 12.4458 19.6997 11.265 19.5404C10.0842 19.3812 8.95322 18.9629 7.95289 18.3157ZM15.9816 18.7484C16.1307 17.8958 16.2056 17.0319 16.2057 16.1663C16.2051 14.9574 16.0582 13.753 15.7684 12.5793C16.9962 12.2325 18.2659 12.0563 19.5417 12.0557C19.8341 12.0557 20.1283 12.0656 20.4207 12.0845C20.3205 13.4843 19.8588 14.8343 19.0807 16.0023C18.3027 17.1704 17.2348 18.1166 15.9816 18.7484Z" fill="#EAEAEA"/>
</svg>
