<svg width="55" height="55" viewBox="0 0 55 55" fill="none" xmlns="http://www.w3.org/2000/svg">
<path d="M48.125 10.7422H6.875C6.53312 10.7422 6.20524 10.878 5.9635 11.1197C5.72175 11.3615 5.58594 11.6894 5.58594 12.0312V41.25C5.58594 42.0477 5.90283 42.8128 6.46691 43.3768C7.03098 43.9409 7.79603 44.2578 8.59375 44.2578H46.4062C47.204 44.2578 47.969 43.9409 48.5331 43.3768C49.0972 42.8128 49.4141 42.0477 49.4141 41.25V12.0312C49.4141 11.6894 49.2783 11.3615 49.0365 11.1197C48.7948 10.878 48.4669 10.7422 48.125 10.7422ZM44.8121 13.3203L27.5 29.1887L10.1879 13.3203H44.8121ZM46.4062 41.6797H8.59375C8.47979 41.6797 8.3705 41.6344 8.28991 41.5538C8.20933 41.4733 8.16406 41.364 8.16406 41.25V14.9617L26.6406 31.8871C26.8783 32.1045 27.1887 32.2251 27.5107 32.2251C27.8328 32.2251 28.1432 32.1045 28.3809 31.8871L46.8359 14.9617V41.25C46.8359 41.364 46.7907 41.4733 46.7101 41.5538C46.6295 41.6344 46.5202 41.6797 46.4062 41.6797Z" fill="white"/>
</svg>
