<svg width="24" height="24" viewBox="0 0 24 24" fill="none" xmlns="http://www.w3.org/2000/svg">
<path d="M12.1724 7.37733C11.3538 7.37733 10.5537 7.62005 9.87311 8.0748C9.19253 8.52954 8.66208 9.17589 8.34885 9.93211C8.03561 10.6883 7.95366 11.5205 8.11334 12.3232C8.27303 13.126 8.66719 13.8635 9.24597 14.4422C9.82476 15.021 10.5622 15.4152 11.365 15.5749C12.1678 15.7346 12.9999 15.6526 13.7561 15.3394C14.5123 15.0261 15.1587 14.4957 15.6134 13.8151C16.0682 13.1345 16.3109 12.3344 16.3109 11.5159C16.3095 10.4187 15.873 9.36687 15.0972 8.59105C14.3213 7.81524 13.2695 7.37876 12.1724 7.37733ZM12.1724 14.5748C11.5674 14.5748 10.9759 14.3954 10.4729 14.0593C9.96988 13.7231 9.57781 13.2454 9.34629 12.6865C9.11476 12.1275 9.05419 11.5125 9.17222 10.9191C9.29024 10.3257 9.58158 9.78068 10.0094 9.35288C10.4372 8.92508 10.9822 8.63375 11.5756 8.51572C12.169 8.39769 12.784 8.45827 13.343 8.68979C13.9019 8.92131 14.3796 9.31338 14.7158 9.81642C15.0519 10.3195 15.2313 10.9109 15.2313 11.5159C15.2313 12.3271 14.909 13.1052 14.3353 13.6788C13.7617 14.2525 12.9836 14.5748 12.1724 14.5748ZM16.4908 2.33911H7.85389C6.56583 2.34054 5.33094 2.85285 4.42014 3.76365C3.50935 4.67444 2.99703 5.90933 2.99561 7.19739V15.8343C2.99703 17.1224 3.50935 18.3573 4.42014 19.2681C5.33094 20.1789 6.56583 20.6912 7.85389 20.6926H16.4908C17.7789 20.6912 19.0138 20.1789 19.9246 19.2681C20.8354 18.3573 21.3477 17.1224 21.3491 15.8343V7.19739C21.3477 5.90933 20.8354 4.67444 19.9246 3.76365C19.0138 2.85285 17.7789 2.34054 16.4908 2.33911ZM20.2695 15.8343C20.2695 16.8365 19.8714 17.7976 19.1627 18.5063C18.4541 19.2149 17.493 19.613 16.4908 19.613H7.85389C6.85172 19.613 5.8906 19.2149 5.18197 18.5063C4.47333 17.7976 4.07522 16.8365 4.07522 15.8343V7.19739C4.07522 6.19523 4.47333 5.23411 5.18197 4.52547C5.8906 3.81684 6.85172 3.41873 7.85389 3.41873H16.4908C17.493 3.41873 18.4541 3.81684 19.1627 4.52547C19.8714 5.23411 20.2695 6.19523 20.2695 7.19739V15.8343ZM17.7504 6.83752C17.7504 7.01546 17.6976 7.1894 17.5988 7.33735C17.4999 7.48531 17.3594 7.60062 17.195 7.66872C17.0306 7.73681 16.8497 7.75463 16.6752 7.71991C16.5007 7.6852 16.3404 7.59951 16.2145 7.47369C16.0887 7.34787 16.003 7.18756 15.9683 7.01304C15.9336 6.83852 15.9514 6.65762 16.0195 6.49323C16.0876 6.32883 16.2029 6.18832 16.3509 6.08946C16.4988 5.9906 16.6728 5.93784 16.8507 5.93784C17.0893 5.93784 17.3181 6.03262 17.4869 6.20135C17.6556 6.37007 17.7504 6.59891 17.7504 6.83752Z" fill="#EAEAEA"/>
</svg>
