<svg width="24" height="24" viewBox="0 0 24 24" fill="none" xmlns="http://www.w3.org/2000/svg">
<path d="M19.9172 2.33911H4.0828C3.74874 2.33911 3.42837 2.47181 3.19216 2.70803C2.95594 2.94424 2.82324 3.26461 2.82324 3.59867V19.4331C2.82324 19.7671 2.95594 20.0875 3.19216 20.3237C3.42837 20.5599 3.74874 20.6926 4.0828 20.6926H19.9172C20.2512 20.6926 20.5716 20.5599 20.8078 20.3237C21.044 20.0875 21.1767 19.7671 21.1767 19.4331V3.59867C21.1767 3.26461 21.044 2.94424 20.8078 2.70803C20.5716 2.47181 20.2512 2.33911 19.9172 2.33911ZM20.0971 19.4331C20.0971 19.4808 20.0782 19.5265 20.0444 19.5603C20.0107 19.594 19.9649 19.613 19.9172 19.613H4.0828C4.03507 19.613 3.98931 19.594 3.95556 19.5603C3.92182 19.5265 3.90286 19.4808 3.90286 19.4331V3.59867C3.90286 3.55094 3.92182 3.50518 3.95556 3.47143C3.98931 3.43769 4.03507 3.41873 4.0828 3.41873H19.9172C19.9649 3.41873 20.0107 3.43769 20.0444 3.47143C20.0782 3.50518 20.0971 3.55094 20.0971 3.59867V19.4331ZM8.94108 10.0764V15.8343C8.94108 15.9775 8.8842 16.1148 8.78297 16.216C8.68174 16.3173 8.54443 16.3741 8.40127 16.3741C8.2581 16.3741 8.1208 16.3173 8.01957 16.216C7.91833 16.1148 7.86146 15.9775 7.86146 15.8343V10.0764C7.86146 9.93321 7.91833 9.7959 8.01957 9.69467C8.1208 9.59344 8.2581 9.53656 8.40127 9.53656C8.54443 9.53656 8.68174 9.59344 8.78297 9.69467C8.8842 9.7959 8.94108 9.93321 8.94108 10.0764ZM16.8583 12.5955V15.8343C16.8583 15.9775 16.8014 16.1148 16.7002 16.216C16.5989 16.3173 16.4616 16.3741 16.3185 16.3741C16.1753 16.3741 16.038 16.3173 15.9368 16.216C15.8355 16.1148 15.7787 15.9775 15.7787 15.8343V12.5955C15.7787 12.0705 15.5701 11.5671 15.1989 11.1959C14.8277 10.8247 14.3243 10.6162 13.7994 10.6162C13.2744 10.6162 12.771 10.8247 12.3998 11.1959C12.0286 11.5671 11.8201 12.0705 11.8201 12.5955V15.8343C11.8201 15.9775 11.7632 16.1148 11.662 16.216C11.5607 16.3173 11.4234 16.3741 11.2802 16.3741C11.1371 16.3741 10.9998 16.3173 10.8985 16.216C10.7973 16.1148 10.7404 15.9775 10.7404 15.8343V10.0764C10.7404 9.93321 10.7973 9.7959 10.8985 9.69467C10.9998 9.59344 11.1371 9.53656 11.2802 9.53656C11.4234 9.53656 11.5607 9.59344 11.662 9.69467C11.7632 9.7959 11.8201 9.93321 11.8201 10.0764V10.2662C12.2649 9.88866 12.8085 9.64622 13.3866 9.5675C13.9648 9.48877 14.5534 9.57704 15.083 9.8219C15.6126 10.0668 16.0612 10.458 16.3757 10.9494C16.6903 11.4409 16.8577 12.012 16.8583 12.5955ZM9.30095 7.55726C9.30095 7.7352 9.24818 7.90915 9.14932 8.0571C9.05047 8.20505 8.90996 8.32037 8.74556 8.38846C8.58117 8.45656 8.40027 8.47437 8.22575 8.43966C8.05123 8.40494 7.89092 8.31926 7.7651 8.19343C7.63927 8.06761 7.55359 7.9073 7.51887 7.73278C7.48416 7.55826 7.50198 7.37737 7.57007 7.21297C7.63816 7.04857 7.75348 6.90806 7.90143 6.80921C8.04938 6.71035 8.22333 6.65758 8.40127 6.65758C8.63988 6.65758 8.86871 6.75237 9.03744 6.92109C9.20616 7.08982 9.30095 7.31865 9.30095 7.55726Z" fill="#EAEAEA"/>
</svg>
