<svg width="78" height="59" viewBox="0 0 78 59" fill="none" xmlns="http://www.w3.org/2000/svg">
<g clip-path="url(#clip0_114_728)">
<path d="M0 1.53796V59H8.63311V36.9392H17.6016V26.5272H8.63311V11.9484H28.4073V1.53796H0Z" fill="black"/>
<path d="M50.3524 36.0926C52.4074 34.7037 54.046 32.6346 55.265 29.8853C56.484 27.136 57.0927 23.8033 57.0927 19.8982C57.0927 15.9931 56.4999 12.5208 55.3174 9.79213C54.1318 7.06981 52.5044 5.01182 50.4303 3.62133C48.3579 2.234 45.9803 1.53955 43.2991 1.53955H28.4089V59.0016H36.508V38.1759H42.2533L50.1442 59.0016H59.2367L50.3524 36.0942V36.0926ZM48.2895 23.9824C47.8191 25.1652 47.1659 26.0912 46.3299 26.7587C45.4939 27.4293 44.499 27.7623 43.3515 27.7623H36.5064V11.95H43.3515C44.5006 11.95 45.4939 12.2861 46.3299 12.9536C47.1659 13.6211 47.8191 14.5471 48.2895 15.7299C48.7599 16.9127 48.9952 18.3031 48.9952 19.8966C48.9952 21.49 48.7599 22.8012 48.2895 23.9824Z" fill="black"/>
<path d="M70.384 0C66.1851 0 62.7681 3.40726 62.7681 7.59776C62.7681 11.7883 66.1851 15.1955 70.384 15.1955C74.583 15.1955 78 11.7867 78 7.59776C78 3.40726 74.583 0 70.384 0ZM70.384 13.5022C67.1196 13.5022 64.4639 10.8528 64.4639 7.59776C64.4639 4.34271 67.1196 1.69174 70.384 1.69174C73.6485 1.69174 76.3042 4.34113 76.3042 7.59776C76.3042 10.8544 73.6485 13.5022 70.384 13.5022Z" fill="#010101"/>
<path d="M72.884 8.97399C72.3977 9.80638 71.4934 10.3233 70.5223 10.3233C69.0156 10.3233 67.7903 9.09925 67.7903 7.59777C67.7903 6.09629 69.0172 4.87069 70.5223 4.87069C71.4918 4.87069 72.3961 5.38915 72.884 6.21996L72.9476 6.32936H74.7832L74.6736 6.03445C74.3541 5.19096 73.7931 4.47273 73.0525 3.96061C72.3087 3.4469 71.4346 3.17419 70.5255 3.17419C68.0811 3.17419 66.0913 5.15925 66.0913 7.59777C66.0913 10.0363 68.0795 12.0198 70.5255 12.0198C71.4361 12.0198 72.3087 11.7486 73.0525 11.2333C73.7947 10.7212 74.3541 10.003 74.6736 9.15949L74.7832 8.86459H72.9476L72.884 8.97399Z" fill="#010101"/>
</g>
<defs>
<clipPath id="clip0_114_728">
<rect width="78" height="59" fill="white"/>
</clipPath>
</defs>
</svg>
