<svg width="24" height="24" viewBox="0 0 24 24" fill="none" xmlns="http://www.w3.org/2000/svg">
<path d="M20.4651 6.6576C19.2724 6.65617 18.1291 6.18178 17.2858 5.33847C16.4425 4.49516 15.9681 3.35181 15.9667 2.15919C15.9667 2.01603 15.9098 1.87872 15.8085 1.77749C15.7073 1.67626 15.57 1.61938 15.4268 1.61938H11.8281C11.685 1.61938 11.5476 1.67626 11.4464 1.77749C11.3452 1.87872 11.2883 2.01603 11.2883 2.15919V14.035C11.2881 14.3891 11.1929 14.7368 11.0125 15.0416C10.8322 15.3464 10.5734 15.5972 10.2631 15.7679C9.95283 15.9387 9.60241 16.023 9.24842 16.0121C8.89444 16.0013 8.54984 15.8957 8.25058 15.7063C7.95131 15.5169 7.70835 15.2507 7.54701 14.9354C7.38568 14.6202 7.31189 14.2674 7.33335 13.9139C7.3548 13.5604 7.47071 13.2191 7.66898 12.9256C7.86726 12.6322 8.14064 12.3973 8.46061 12.2455C8.55291 12.2018 8.63091 12.1327 8.68553 12.0464C8.74016 11.9601 8.76917 11.86 8.7692 11.7579V7.91716C8.76912 7.8387 8.75194 7.7612 8.71886 7.69006C8.68577 7.61893 8.63758 7.55585 8.57763 7.50524C8.51768 7.45463 8.44742 7.41769 8.37174 7.397C8.29606 7.37631 8.21678 7.37237 8.13942 7.38544C5.00853 7.94235 2.65137 10.8006 2.65137 14.035C2.65137 15.8007 3.3528 17.4941 4.60135 18.7427C5.8499 19.9912 7.54329 20.6926 9.30901 20.6926C11.0747 20.6926 12.7681 19.9912 14.0167 18.7427C15.2652 17.4941 15.9667 15.8007 15.9667 14.035V10.1601C17.3392 10.9344 18.8891 11.3396 20.4651 11.3359C20.6082 11.3359 20.7455 11.2791 20.8468 11.1778C20.948 11.0766 21.0049 10.9393 21.0049 10.7961V7.19741C21.0049 7.05424 20.948 6.91694 20.8468 6.81571C20.7455 6.71447 20.6082 6.6576 20.4651 6.6576ZM19.9253 10.2383C18.4171 10.142 16.9669 9.6215 15.7417 8.73677C15.661 8.67877 15.5658 8.6442 15.4666 8.63687C15.3674 8.62955 15.2682 8.64975 15.1798 8.69526C15.0914 8.74076 15.0173 8.8098 14.9656 8.89475C14.9139 8.97971 14.8868 9.07728 14.887 9.17671V14.035C14.887 15.5144 14.2994 16.9332 13.2533 17.9792C12.2072 19.0253 10.7884 19.613 9.30901 19.613C7.82963 19.613 6.41083 19.0253 5.36475 17.9792C4.31867 16.9332 3.73098 15.5144 3.73098 14.035C3.73098 11.5411 5.3927 9.31346 7.68958 8.60271V11.4394C7.23784 11.7213 6.86752 12.1163 6.61523 12.5852C6.36294 13.0541 6.23742 13.5808 6.2511 14.1131C6.26478 14.6454 6.41718 15.1649 6.69321 15.6202C6.96925 16.0756 7.35938 16.451 7.825 16.7093C8.29062 16.9676 8.81561 17.1 9.34805 17.0932C9.88049 17.0864 10.4019 16.9407 10.8608 16.6706C11.3197 16.4004 11.7001 16.0152 11.9644 15.553C12.2288 15.0907 12.3678 14.5675 12.3679 14.035V2.699H14.9131C15.0397 3.9853 15.6085 5.1879 16.5224 6.10185C17.4364 7.0158 18.6389 7.58453 19.9253 7.71113V10.2383Z" fill="#EAEAEA"/>
</svg>
