<svg width="24" height="24" viewBox="0 0 24 24" fill="none" xmlns="http://www.w3.org/2000/svg">
<path d="M22.2311 6.27167C22.1904 6.17298 22.1213 6.08859 22.0326 6.02917C21.9438 5.96976 21.8395 5.93799 21.7327 5.93789H18.8897C18.53 5.28917 18.0046 4.7475 17.3672 4.36816C16.7297 3.98882 16.0031 3.7854 15.2613 3.77865C14.7226 3.77175 14.1879 3.87261 13.6887 4.07532C13.1895 4.27803 12.7358 4.57849 12.3544 4.95903C11.9613 5.34471 11.6493 5.80509 11.4367 6.3131C11.2241 6.82111 11.1152 7.36649 11.1165 7.91719V8.69631C7.33781 7.79663 4.22491 4.69093 4.18893 4.65854C4.11643 4.58654 4.02498 4.5366 3.92522 4.51452C3.82545 4.49244 3.72147 4.49912 3.62536 4.5338C3.52925 4.56847 3.44495 4.62972 3.38226 4.71041C3.31958 4.7911 3.28108 4.88792 3.27125 4.98962C2.88889 9.23792 4.11875 12.0746 5.21816 13.7066C5.78651 14.5616 6.4871 15.3208 7.29373 15.9558C5.90012 17.6652 3.57444 18.555 3.54925 18.5649C3.47242 18.5933 3.40307 18.6389 3.34645 18.6981C3.28983 18.7573 3.24743 18.8286 3.22246 18.9067C3.19749 18.9847 3.19061 19.0674 3.20234 19.1484C3.21406 19.2295 3.24409 19.3069 3.29014 19.3746C3.37921 19.5078 4.2591 20.6927 7.33781 20.6927C13.6248 20.6927 18.8744 15.8344 19.3774 9.59599L22.1142 6.86006C22.1897 6.78455 22.2411 6.68834 22.2619 6.58361C22.2827 6.47887 22.272 6.37032 22.2311 6.27167ZM18.4723 8.97521C18.3793 9.06797 18.3233 9.19143 18.3148 9.32249C17.9478 15.093 13.1255 19.613 7.33781 19.613C6.07826 19.613 5.29014 19.3962 4.81331 19.1812C5.82995 18.6702 7.48716 17.6625 8.5065 16.134C8.54715 16.0728 8.5749 16.004 8.58805 15.9318C8.6012 15.8595 8.59947 15.7854 8.58297 15.7138C8.5663 15.6418 8.53502 15.574 8.49107 15.5146C8.44712 15.4551 8.39143 15.4054 8.32746 15.3684C8.31577 15.3612 7.14618 14.6612 6.07826 13.0544C4.8187 11.156 4.21682 8.85555 4.27889 6.197C5.61762 7.33059 8.37874 9.35398 11.5663 9.88569C11.6437 9.89878 11.7231 9.89482 11.7989 9.87407C11.8746 9.85333 11.9449 9.81632 12.0049 9.7656C12.0648 9.71489 12.113 9.65171 12.146 9.58046C12.1791 9.50921 12.1961 9.43161 12.1961 9.35308V7.91719C12.1953 7.5095 12.2759 7.10577 12.4334 6.72971C12.5908 6.35365 12.8218 6.01286 13.1129 5.72736C13.3931 5.44758 13.7263 5.22659 14.0931 5.07735C14.4599 4.9281 14.8528 4.85362 15.2487 4.85827C16.457 4.87356 17.5879 5.6113 18.0593 6.69362C18.1013 6.7899 18.1705 6.87182 18.2584 6.92936C18.3463 6.98689 18.4491 7.01752 18.5541 7.01751H20.4291L18.4723 8.97521Z" fill="#EAEAEA"/>
</svg>
