<svg width="24" height="24" viewBox="0 0 24 24" fill="none" xmlns="http://www.w3.org/2000/svg">
<path d="M17.7637 13.192L14.8847 11.7525C14.7997 11.7102 14.705 11.6911 14.6102 11.6971C14.5154 11.7031 14.4239 11.734 14.3449 11.7867L12.9342 12.7268C12.22 12.3612 11.639 11.7802 11.2734 11.066L12.2144 9.65622C12.2671 9.5772 12.298 9.48569 12.304 9.39091C12.31 9.29613 12.2909 9.20144 12.2486 9.11641L10.8091 6.23743C10.7644 6.14736 10.6953 6.07158 10.6098 6.01865C10.5243 5.96571 10.4257 5.93772 10.3251 5.93784C9.41839 5.93784 8.5488 6.29803 7.90766 6.93918C7.26651 7.58033 6.90632 8.44991 6.90632 9.35663C6.9087 11.4079 7.72464 13.3746 9.17514 14.8251C10.6256 16.2756 12.5923 17.0915 14.6436 17.0939C15.5503 17.0939 16.4199 16.7337 17.061 16.0925C17.7022 15.4514 18.0624 14.5818 18.0624 13.6751C18.0624 13.5748 18.0345 13.4764 17.9817 13.3911C17.9289 13.3057 17.8534 13.2368 17.7637 13.192ZM14.6436 16.0143C12.8785 16.0121 11.1864 15.31 9.93828 14.0619C8.69019 12.8138 7.98808 11.1217 7.98593 9.35663C7.98599 8.79207 8.19021 8.24659 8.56093 7.82081C8.93165 7.39502 9.44384 7.11768 10.003 7.03995L11.142 9.31794L10.2072 10.7196C10.1581 10.7936 10.128 10.8785 10.1195 10.9668C10.1111 11.0552 10.1245 11.1442 10.1587 11.2262C10.655 12.4063 11.5939 13.3452 12.774 13.8415C12.856 13.8757 12.945 13.8891 13.0334 13.8807C13.1217 13.8722 13.2066 13.8421 13.2806 13.793L14.6823 12.8582L16.9603 13.9972C16.8825 14.5564 16.6052 15.0686 16.1794 15.4393C15.7536 15.81 15.2081 16.0142 14.6436 16.0143ZM12.4843 2.33911C10.8935 2.33878 9.32992 2.752 7.94697 3.53824C6.56401 4.32448 5.4092 5.45672 4.59583 6.8239C3.78246 8.19107 3.33847 9.7462 3.30741 11.3367C3.27636 12.9273 3.65931 14.4985 4.4187 15.8964L3.37327 19.0336C3.29926 19.2555 3.28852 19.4937 3.34225 19.7214C3.39598 19.9491 3.51207 20.1573 3.67749 20.3227C3.84291 20.4881 4.05114 20.6042 4.27883 20.658C4.50652 20.7117 4.74467 20.7009 4.9666 20.6269L8.10379 19.5815C9.33184 20.2479 10.6959 20.6251 12.0918 20.6844C13.4878 20.7436 14.8789 20.4833 16.1589 19.9232C17.439 19.3632 18.5743 18.5183 19.4783 17.4529C20.3822 16.3875 21.031 15.1297 21.375 13.7755C21.719 12.4213 21.7493 11.0064 21.4635 9.63873C21.1777 8.27105 20.5834 6.98669 19.7258 5.88358C18.8683 4.78048 17.7701 3.88776 16.5152 3.2735C15.2602 2.65924 13.8816 2.33965 12.4843 2.33911ZM12.4843 19.613C11.061 19.6133 9.66269 19.2385 8.43038 18.5262C8.34822 18.479 8.25523 18.4538 8.16047 18.4533C8.10239 18.4536 8.04471 18.4631 7.98953 18.4812L4.62562 19.6022C4.59392 19.6128 4.5599 19.6143 4.52737 19.6066C4.49484 19.599 4.4651 19.5824 4.44147 19.5587C4.41783 19.5351 4.40125 19.5054 4.39357 19.4728C4.3859 19.4403 4.38743 19.4063 4.398 19.3746L5.51901 16.0143C5.54326 15.9417 5.5518 15.8647 5.54404 15.7886C5.53628 15.7124 5.51242 15.6388 5.47402 15.5725C4.58087 14.0297 4.22186 12.2352 4.4527 10.4674C4.68353 8.69969 5.49131 7.05754 6.7507 5.79576C8.01009 4.53398 9.6507 3.72309 11.418 3.4889C13.1853 3.25471 14.9805 3.61031 16.525 4.50053C18.0696 5.39076 19.2772 6.76584 19.9605 8.41244C20.6437 10.059 20.7645 11.8851 20.304 13.6074C19.8435 15.3296 18.8275 16.8517 17.4137 17.9376C15.9998 19.0235 14.2671 19.6124 12.4843 19.613Z" fill="#EAEAEA"/>
</svg>
